<?xml version="1.0" standalone="no"?>
<svg xmlns:xlink="http://www.w3.org/1999/xlink" id="wave" style="transform:rotate(0deg); transition: 0.3s" viewBox="0 0 1440 200" version="1.1" xmlns="http://www.w3.org/2000/svg"><defs><linearGradient id="sw-gradient-0" x1="0" x2="0" y1="1" y2="0"><stop stop-color="rgba(35, 39, 42, 1)" offset="0%"/><stop stop-color="rgba(35, 39, 42, 1)" offset="100%"/></linearGradient></defs><path style="transform:translate(0, 0px); opacity:1" fill="url(#sw-gradient-0)" d="M0,40L30,36.7C60,33,120,27,180,43.3C240,60,300,100,360,110C420,120,480,100,540,90C600,80,660,80,720,90C780,100,840,120,900,113.3C960,107,1020,73,1080,66.7C1140,60,1200,80,1260,86.7C1320,93,1380,87,1440,73.3C1500,60,1560,40,1620,46.7C1680,53,1740,87,1800,110C1860,133,1920,147,1980,153.3C2040,160,2100,160,2160,160C2220,160,2280,160,2340,136.7C2400,113,2460,67,2520,46.7C2580,27,2640,33,2700,56.7C2760,80,2820,120,2880,133.3C2940,147,3000,133,3060,126.7C3120,120,3180,120,3240,126.7C3300,133,3360,147,3420,153.3C3480,160,3540,160,3600,136.7C3660,113,3720,67,3780,63.3C3840,60,3900,100,3960,120C4020,140,4080,140,4140,130C4200,120,4260,100,4290,90L4320,80L4320,200L4290,200C4260,200,4200,200,4140,200C4080,200,4020,200,3960,200C3900,200,3840,200,3780,200C3720,200,3660,200,3600,200C3540,200,3480,200,3420,200C3360,200,3300,200,3240,200C3180,200,3120,200,3060,200C3000,200,2940,200,2880,200C2820,200,2760,200,2700,200C2640,200,2580,200,2520,200C2460,200,2400,200,2340,200C2280,200,2220,200,2160,200C2100,200,2040,200,1980,200C1920,200,1860,200,1800,200C1740,200,1680,200,1620,200C1560,200,1500,200,1440,200C1380,200,1320,200,1260,200C1200,200,1140,200,1080,200C1020,200,960,200,900,200C840,200,780,200,720,200C660,200,600,200,540,200C480,200,420,200,360,200C300,200,240,200,180,200C120,200,60,200,30,200L0,200Z"/></svg>